<svg xmlns="http://www.w3.org/2000/svg" width="20.964" height="17.412" viewBox="0 41.674 20.964 17.412"><g><g><path d="m19.785 48.736.033.007H5.79l4.41-4.42c.216-.215.334-.507.334-.814 0-.307-.118-.597-.334-.813l-.686-.687a1.138 1.138 0 0 0-.81-.335c-.307 0-.595.118-.81.334l-7.56 7.559a1.136 1.136 0 0 0-.334.812c-.001.309.117.597.334.814l7.56 7.559c.215.216.503.334.81.334.306 0 .594-.119.81-.334l.686-.687c.216-.215.334-.503.334-.81 0-.306-.118-.579-.334-.794l-4.46-4.444H19.8c.633 0 1.163-.545 1.163-1.176v-.971c0-.632-.546-1.134-1.178-1.134Z" fill="#fff"/><path d="m19.785 48.736.033.007H5.79l4.41-4.42c.216-.215.334-.507.334-.814 0-.307-.118-.597-.334-.813l-.686-.687a1.138 1.138 0 0 0-.81-.335c-.307 0-.595.118-.81.334l-7.56 7.559a1.136 1.136 0 0 0-.334.812c-.001.309.117.597.334.814l7.56 7.559c.215.216.503.334.81.334.306 0 .594-.119.81-.334l.686-.687c.216-.215.334-.503.334-.81 0-.306-.118-.579-.334-.794l-4.46-4.444H19.8c.633 0 1.163-.545 1.163-1.176v-.971c0-.632-.546-1.134-1.178-1.134Z" stroke-linejoin="round" stroke-linecap="round" stroke="#191919" fill="transparent"/></g></g></svg>
