<svg xmlns="http://www.w3.org/2000/svg" width="56" height="40" viewBox="86 573 56 40">
    <g>
        <g>
            <path d="M136 593h-10v-14a6 6 0 0 0-6-6h-12a6 6 0 0 0-6 6v6H92a6 6 0 0 0-6 6v18a4 4 0 0 0 4 4h48a4 4 0 0 0 4-4v-10a6 6 0 0 0-6-6Zm-46-2a2 2 0 0 1 2-2h10v20H90v-18Zm16-12a2 2 0 0 1 2-2h12a2 2 0 0 1 2 2v30h-16v-30Zm20 30v-12h10a2 2 0 0 1 2 2v10h-12Z"
                  fill="#008a1f" fill-rule="evenodd"/>
            <path d="M136 593h-10v-14a6 6 0 0 0-6-6h-12a6 6 0 0 0-6 6v6H92a6 6 0 0 0-6 6v18a4 4 0 0 0 4 4h48a4 4 0 0 0 4-4v-10a6 6 0 0 0-6-6Zm-46-2a2 2 0 0 1 2-2h10v20H90v-18Zm16-12a2 2 0 0 1 2-2h12a2 2 0 0 1 2 2v30h-16v-30Zm20 30v-12h10a2 2 0 0 1 2 2v10h-12Z"
                  stroke-linejoin="round" stroke-linecap="round" stroke-width="2" stroke="#fff" fill="transparent"/>
        </g>
    </g>
</svg>
