<svg xmlns="http://www.w3.org/2000/svg" width="21" height="23" viewBox="378 49.881 21 23"><g><path d="M396 64.426v-4.37c0-3.246-2.1-6.076-4.99-7.133.033-.167.052-.338.052-.509 0-1.398-1.148-2.533-2.561-2.533-1.414 0-2.562 1.135-2.562 2.533 0 .167.02.334.05.494a7.466 7.466 0 0 0-2.697 1.65 7.316 7.316 0 0 0-2.291 5.339v4.53c0 .159-.131.292-.296.292-1.384 0-2.565 1.032-2.693 2.345-.071.73.173 1.458.671 2 .495.537 1.204.849 1.943.849h4.522c.188 1.665 1.62 2.968 3.353 2.968 1.732 0 3.164-1.303 3.352-2.968h4.522c.74 0 1.448-.312 1.943-.85a2.61 2.61 0 0 0 .67-2c-.127-1.312-1.311-2.344-2.691-2.344a.293.293 0 0 1-.297-.293Zm-7.5-13.062c.586 0 1.062.472 1.062 1.05 0 .048-.008.093-.015.141a6.715 6.715 0 0 0-.773-.07 7.81 7.81 0 0 0-1.32.074c-.007-.048-.015-.093-.015-.141 0-.582.477-1.054 1.062-1.054Zm0 20.033a1.876 1.876 0 0 1-1.837-1.484h3.675a1.876 1.876 0 0 1-1.837 1.484Zm8.996-4.192a1.11 1.11 0 0 1-.285.86 1.136 1.136 0 0 1-.836.364h-15.75a1.122 1.122 0 0 1-1.12-1.224c.052-.56.58-1.002 1.2-1.002a1.79 1.79 0 0 0 1.796-1.777v-4.53c0-1.624.652-3.141 1.833-4.27a5.977 5.977 0 0 1 4.388-1.661c3.183.111 5.778 2.845 5.778 6.091v4.37c0 .98.807 1.777 1.797 1.777.618 0 1.143.442 1.2 1.002Z" fill="#fff"/></g></svg>
