<svg id="cake" xmlns="http://www.w3.org/2000/svg" width="15.234" height="18.608" viewBox="0 0 15.234 18.608">
  <g id="Group_15509">
    <g id="Group_15508">
      <path id="Path_1134" d="M193.585,5.075a1.692,1.692,0,0,0,1.451-2.563L193.585,0l-1.451,2.512a1.692,1.692,0,0,0,1.451,2.563Z" transform="translate(-185.972)" fill="#d8d8d8"/>
      <path id="Path_1135" d="M55.248,151.025H51.018v-1.692H49.327v1.692H45.1a2.54,2.54,0,0,0-2.538,2.538v1.3a1.657,1.657,0,0,0,2.829,1.171l1.81-1.806,1.806,1.8a1.7,1.7,0,0,0,2.343,0l1.81-1.8,1.806,1.8a1.657,1.657,0,0,0,2.829-1.171v-1.3A2.552,2.552,0,0,0,55.248,151.025Z" transform="translate(-42.56 -143.412)" fill="#d8d8d8"/>
      <path id="Path_1136" d="M54.059,318.989h0l-.909-.909-.914.909a3,3,0,0,1-4.136,0l-.909-.909-.914.909a2.868,2.868,0,0,1-2.06.859,2.92,2.92,0,0,1-1.658-.52v3.9a.848.848,0,0,0,.846.846H56.939a.848.848,0,0,0,.846-.846v-3.9a2.912,2.912,0,0,1-3.726-.338Z" transform="translate(-42.56 -305.469)" fill="#d8d8d8"/>
    </g>
  </g>
</svg>
