<svg xmlns="http://www.w3.org/2000/svg" width="45" height="45" viewBox="0 0 45 45">
  <g id="Group_16034" transform="translate(-30 -129)">
    <g id="Group_15948" transform="translate(0 -46)">
      <circle id="albert-dera-ILip77SbmOE-unsplash" cx="22.5" cy="22.5" r="22.5" transform="translate(30 175)" fill="#f9f9f9"/>
    </g>
    <g id="car_2_" transform="translate(38.236 28.297)">
      <g id="Group_16053" transform="translate(0 115.703)">
        <path id="Path_1224" d="M27.043,121.473l-2.292-1.046L22.728,117.2a3.186,3.186,0,0,0-2.718-1.5H11.393a3.215,3.215,0,0,0-2.555,1.257l-2.613,3.42-4.355,1.193A2.554,2.554,0,0,0,0,124.034V125.7a2.552,2.552,0,0,0,2.531,2.572h.374a3.246,3.246,0,0,0,6.284,0h9.821a3.246,3.246,0,0,0,6.284,0H26a2.552,2.552,0,0,0,2.531-2.572v-1.9A2.547,2.547,0,0,0,27.043,121.473Zm-21,8.05a2.075,2.075,0,1,1,2.075-2.075A2.076,2.076,0,0,1,6.045,129.523Zm16.105,0a2.075,2.075,0,1,1,2.075-2.075A2.076,2.076,0,0,1,22.15,129.523ZM26,127.1h-.62a3.247,3.247,0,0,0-6.454,0H9.271a3.247,3.247,0,0,0-6.454,0H2.525a1.38,1.38,0,0,1-1.362-1.4v-1.666a1.377,1.377,0,0,1,1.011-1.339l4.554-1.245a.57.57,0,0,0,.31-.21l2.724-3.572a2.066,2.066,0,0,1,1.631-.8H20.01a2.014,2.014,0,0,1,1.73.947l2.116,3.379a.576.576,0,0,0,.251.222l2.444,1.117a1.376,1.376,0,0,1,.8,1.263v1.9h.006A1.38,1.38,0,0,1,26,127.1Z" transform="translate(0 -115.703)" fill="#008a1f" stroke="#008a1f" stroke-width="0.4"/>
      </g>
    </g>
  </g>
</svg>
