<svg xmlns="http://www.w3.org/2000/svg" width="40.001" height="40" viewBox="86.648 273 40.001 40">
    <g>
        <g>
            <g transform="translate(86.648 273)" clip-path="url(&quot;#a&quot;)">
                <g>
                    <path d="M32.927 0A2.91 2.91 0 0 1 35 .858l4.143 4.143A2.91 2.91 0 0 1 40 7.073a2.91 2.91 0 0 1-.858 2.071L16.673 31.613a2.91 2.91 0 0 1-2.071.858 2.91 2.91 0 0 1-2.072-.858L8.387 27.47a2.91 2.91 0 0 1-.858-2.072c0-.782.305-1.518.858-2.071L30.855.858A2.91 2.91 0 0 1 32.927 0ZM14.602 31.3c.47 0 .91-.184 1.243-.516L38.313 8.316c.332-.332.515-.774.515-1.243 0-.47-.183-.911-.515-1.243L34.17 1.687a1.746 1.746 0 0 0-1.243-.515c-.47 0-.91.183-1.243.515L9.216 24.155a1.746 1.746 0 0 0-.515 1.243c0 .47.183.911.515 1.243l4.143 4.143c.332.332.773.515 1.243.515Z"
                          fill="#008a1f"/>
                    <path d="M32.927 0A2.91 2.91 0 0 1 35 .858l4.143 4.143A2.91 2.91 0 0 1 40 7.073a2.91 2.91 0 0 1-.858 2.071L16.673 31.613a2.91 2.91 0 0 1-2.071.858 2.91 2.91 0 0 1-2.072-.858L8.387 27.47a2.91 2.91 0 0 1-.858-2.072c0-.782.305-1.518.858-2.071L30.855.858A2.91 2.91 0 0 1 32.927 0ZM14.602 31.3c.47 0 .91-.184 1.243-.516L38.313 8.316c.332-.332.515-.774.515-1.243 0-.47-.183-.911-.515-1.243L34.17 1.687a1.746 1.746 0 0 0-1.243-.515c-.47 0-.91.183-1.243.515L9.216 24.155a1.746 1.746 0 0 0-.515 1.243c0 .47.183.911.515 1.243l4.143 4.143c.332.332.773.515 1.243.515Z"
                          stroke-linejoin="round" stroke-linecap="round" stroke-width=".6" stroke="#008a1f" fill="transparent"/>
                </g>
                <g>
                    <path d="M1.757 40c-.47 0-.91-.183-1.243-.515A1.746 1.746 0 0 1 0 38.242c0-.47.182-.91.514-1.243l9.116-9.115a.586.586 0 1 1 .828.829l-9.115 9.115a.582.582 0 0 0 0 .828.582.582 0 0 0 .829 0l9.115-9.114a.586.586 0 1 1 .828.828L3 39.485A1.746 1.746 0 0 1 1.757 40Z"
                          fill="#008a1f"/>
                    <path d="M1.757 40c-.47 0-.91-.183-1.243-.515A1.746 1.746 0 0 1 0 38.242c0-.47.182-.91.514-1.243l9.116-9.115a.586.586 0 1 1 .828.829l-9.115 9.115a.582.582 0 0 0 0 .828.582.582 0 0 0 .829 0l9.115-9.114a.586.586 0 1 1 .828.828L3 39.485A1.746 1.746 0 0 1 1.757 40Z"
                          stroke-linejoin="round" stroke-linecap="round" stroke-width=".6" stroke="#008a1f" fill="transparent"/>
                </g>
                <g>
                    <path d="M10.044 32.199c-.15 0-.3-.057-.414-.172L7.972 30.37a.586.586 0 0 1 .829-.828l1.657 1.657a.586.586 0 0 1-.414 1Z" fill="#008a1f"/>
                    <path d="M10.044 32.199c-.15 0-.3-.057-.414-.172L7.972 30.37a.586.586 0 0 1 .829-.828l1.657 1.657a.586.586 0 0 1-.414 1Z" stroke-linejoin="round" stroke-linecap="round"
                          stroke-width=".6" stroke="#008a1f" fill="transparent"/>
                </g>
                <g>
                    <path d="M8.387 33.856c-.15 0-.3-.057-.415-.171l-1.657-1.658a.586.586 0 0 1 .829-.828L8.8 32.856a.586.586 0 0 1-.414 1Z" fill="#008a1f"/>
                    <path d="M8.387 33.856c-.15 0-.3-.057-.415-.171l-1.657-1.658a.586.586 0 0 1 .829-.828L8.8 32.856a.586.586 0 0 1-.414 1Z" stroke-linejoin="round" stroke-linecap="round"
                          stroke-width=".6" stroke="#008a1f" fill="transparent"/>
                </g>
                <g>
                    <path d="M6.73 35.514c-.15 0-.3-.058-.415-.172l-1.657-1.657a.586.586 0 1 1 .829-.829l1.657 1.657a.586.586 0 0 1-.414 1Z" fill="#008a1f"/>
                    <path d="M6.73 35.514c-.15 0-.3-.058-.415-.172l-1.657-1.657a.586.586 0 1 1 .829-.829l1.657 1.657a.586.586 0 0 1-.414 1Z" stroke-linejoin="round" stroke-linecap="round"
                          stroke-width=".6" stroke="#008a1f" fill="transparent"/>
                </g>
                <g>
                    <path d="M25.399 32.47c-.75 0-1.5-.286-2.072-.857l-3.729-3.728a.586.586 0 0 1 .829-.83l3.729 3.73a1.76 1.76 0 0 0 2.486 0l4.143-4.144c.332-.332.515-.773.515-1.243 0-.47-.183-.91-.515-1.243l-3.73-3.728a.586.586 0 0 1 .83-.83l3.728 3.73a2.91 2.91 0 0 1 .858 2.071 2.91 2.91 0 0 1-.858 2.072l-4.143 4.143a2.92 2.92 0 0 1-2.071.857Z"
                          fill="#008a1f"/>
                    <path d="M25.399 32.47c-.75 0-1.5-.286-2.072-.857l-3.729-3.728a.586.586 0 0 1 .829-.83l3.729 3.73a1.76 1.76 0 0 0 2.486 0l4.143-4.144c.332-.332.515-.773.515-1.243 0-.47-.183-.91-.515-1.243l-3.73-3.728a.586.586 0 0 1 .83-.83l3.728 3.73a2.91 2.91 0 0 1 .858 2.071 2.91 2.91 0 0 1-.858 2.072l-4.143 4.143a2.92 2.92 0 0 1-2.071.857Z"
                          stroke-linejoin="round" stroke-linecap="round" stroke-width=".6" stroke="#008a1f" fill="transparent"/>
                </g>
                <g>
                    <path d="M12.542 20.586c-.15 0-.3-.057-.414-.172L.858 9.144A2.91 2.91 0 0 1 0 7.073C0 6.29.304 5.555.858 5L5 .858A2.91 2.91 0 0 1 7.072 0a2.91 2.91 0 0 1 2.072.858l9.613 9.612a.586.586 0 0 1-.829.83L8.315 1.686a1.746 1.746 0 0 0-1.243-.515c-.47 0-.91.183-1.242.515L1.686 5.83a1.746 1.746 0 0 0-.515 1.243c0 .47.183.91.515 1.243l11.27 11.27a.586.586 0 0 1-.414 1Z"
                          fill="#008a1f"/>
                    <path d="M12.542 20.586c-.15 0-.3-.057-.414-.172L.858 9.144A2.91 2.91 0 0 1 0 7.073C0 6.29.304 5.555.858 5L5 .858A2.91 2.91 0 0 1 7.072 0a2.91 2.91 0 0 1 2.072.858l9.613 9.612a.586.586 0 0 1-.829.83L8.315 1.686a1.746 1.746 0 0 0-1.243-.515c-.47 0-.91.183-1.242.515L1.686 5.83a1.746 1.746 0 0 0-.515 1.243c0 .47.183.91.515 1.243l11.27 11.27a.586.586 0 0 1-.414 1Z"
                          stroke-linejoin="round" stroke-linecap="round" stroke-width=".6" stroke="#008a1f" fill="transparent"/>
                </g>
                <g>
                    <path d="M38.243 40c-.47 0-.911-.183-1.243-.515l-9.115-9.115a.586.586 0 1 1 .828-.828l9.115 9.114a.582.582 0 0 0 .829 0 .582.582 0 0 0 0-.828l-9.115-9.115a.586.586 0 1 1 .828-.829L39.486 37c.332.332.514.774.514 1.243 0 .47-.182.911-.514 1.243a1.746 1.746 0 0 1-1.243.515Z"
                          fill="#008a1f"/>
                    <path d="M38.243 40c-.47 0-.911-.183-1.243-.515l-9.115-9.115a.586.586 0 1 1 .828-.828l9.115 9.114a.582.582 0 0 0 .829 0 .582.582 0 0 0 0-.828l-9.115-9.115a.586.586 0 1 1 .828-.829L39.486 37c.332.332.514.774.514 1.243 0 .47-.182.911-.514 1.243a1.746 1.746 0 0 1-1.243.515Z"
                          stroke-linejoin="round" stroke-linecap="round" stroke-width=".6" stroke="#008a1f" fill="transparent"/>
                </g>
                <g>
                    <path d="M29.956 32.199a.586.586 0 0 1-.414-1l1.657-1.657a.586.586 0 1 1 .829.828l-1.658 1.657a.584.584 0 0 1-.414.172Z" fill="#008a1f"/>
                    <path d="M29.956 32.199a.586.586 0 0 1-.414-1l1.657-1.657a.586.586 0 1 1 .829.828l-1.658 1.657a.584.584 0 0 1-.414.172Z" stroke-linejoin="round" stroke-linecap="round"
                          stroke-width=".6" stroke="#008a1f" fill="transparent"/>
                </g>
                <g>
                    <path d="M31.614 33.856a.586.586 0 0 1-.414-1l1.656-1.657a.586.586 0 0 1 .83.828l-1.658 1.658a.584.584 0 0 1-.414.171Z" fill="#008a1f"/>
                    <path d="M31.614 33.856a.586.586 0 0 1-.414-1l1.656-1.657a.586.586 0 0 1 .83.828l-1.658 1.658a.584.584 0 0 1-.414.171Z" stroke-linejoin="round" stroke-linecap="round"
                          stroke-width=".6" stroke="#008a1f" fill="transparent"/>
                </g>
                <g>
                    <path d="M33.27 35.514a.586.586 0 0 1-.414-1l1.658-1.658a.586.586 0 0 1 .828.829l-1.657 1.657a.584.584 0 0 1-.414.172Z" fill="#008a1f"/>
                    <path d="M33.27 35.514a.586.586 0 0 1-.414-1l1.658-1.658a.586.586 0 0 1 .828.829l-1.657 1.657a.584.584 0 0 1-.414.172Z" stroke-linejoin="round" stroke-linecap="round"
                          stroke-width=".6" stroke="#008a1f" fill="transparent"/>
                </g>
                <g>
                    <path d="M20 0a3.52 3.52 0 0 1 3.516 3.516A3.52 3.52 0 0 1 20 7.03a3.52 3.52 0 0 1-3.515-3.515A3.52 3.52 0 0 1 20 0Zm0 5.86a2.346 2.346 0 0 0 2.344-2.344A2.346 2.346 0 0 0 20 1.172a2.346 2.346 0 0 0-2.343 2.344A2.346 2.346 0 0 0 20 5.859Z"
                          fill="#008a1f"/>
                    <path d="M20 0a3.52 3.52 0 0 1 3.516 3.516A3.52 3.52 0 0 1 20 7.03a3.52 3.52 0 0 1-3.515-3.515A3.52 3.52 0 0 1 20 0Zm0 5.86a2.346 2.346 0 0 0 2.344-2.344A2.346 2.346 0 0 0 20 1.172a2.346 2.346 0 0 0-2.343 2.344A2.346 2.346 0 0 0 20 5.859Z"
                          stroke-linejoin="round" stroke-linecap="round" stroke-width=".6" stroke="#008a1f" fill="transparent"/>
                </g>
            </g>
        </g>
    </g>
    <defs>
        <clipPath id="a">
            <path d="M0-682.665h40v40H0v-40Z" transform="translate(0 682.665)"/>
        </clipPath>
    </defs>
</svg>
