<svg xmlns="http://www.w3.org/2000/svg" width="50.476" height="40" viewBox="280 423 50.476 40">
    <g>
        <g>
            <g>
                <g>
                    <path d="M305.183 430.844H289.09a1.342 1.342 0 0 0 0 2.682h16.093a1.342 1.342 0 0 0 0-2.682Z" fill="#008a1f" fill-rule="evenodd"/>
                    <path d="M305.183 430.844H289.09a1.342 1.342 0 0 0 0 2.682h16.093a1.342 1.342 0 0 0 0-2.682Z" stroke-linejoin="round" stroke-linecap="round" stroke-width=".7" stroke="#fff"
                          fill="transparent"/>
                </g>
            </g>
        </g>
        <g>
            <g>
                <g>
                    <path d="M299.86 436.073h-10.728a1.342 1.342 0 0 0 0 2.682h10.728a1.342 1.342 0 0 0 0-2.682Z" fill="#008a1f" fill-rule="evenodd"/>
                    <path d="M299.86 436.073h-10.728a1.342 1.342 0 0 0 0 2.682h10.728a1.342 1.342 0 0 0 0-2.682Z" stroke-linejoin="round" stroke-linecap="round" stroke-width=".7" stroke="#fff"
                          fill="transparent"/>
                </g>
            </g>
        </g>
        <g>
            <g>
                <g>
                    <path d="M309.503 423h-24.139a5.37 5.37 0 0 0-5.364 5.364v26.821a1.34 1.34 0 0 0 2.2 1.03l7.673-6.394h19.63a5.37 5.37 0 0 0 5.364-5.364v-16.093a5.37 5.37 0 0 0-5.364-5.364Zm2.682 21.457a2.685 2.685 0 0 1-2.682 2.682h-20.116c-.313 0-.617.11-.858.311l-5.847 4.873v-23.959a2.685 2.685 0 0 1 2.682-2.682h24.14a2.685 2.685 0 0 1 2.681 2.682v16.093Z"
                          fill="#008a1f" fill-rule="evenodd"/>
                    <path d="M309.503 423h-24.139a5.37 5.37 0 0 0-5.364 5.364v26.821a1.34 1.34 0 0 0 2.2 1.03l7.673-6.394h19.63a5.37 5.37 0 0 0 5.364-5.364v-16.093a5.37 5.37 0 0 0-5.364-5.364Zm2.682 21.457a2.685 2.685 0 0 1-2.682 2.682h-20.116c-.313 0-.617.11-.858.311l-5.847 4.873v-23.959a2.685 2.685 0 0 1 2.682-2.682h24.14a2.685 2.685 0 0 1 2.681 2.682v16.093Z"
                          stroke-linejoin="round" stroke-linecap="round" stroke-width=".7" stroke="#fff" fill="transparent"/>
                </g>
            </g>
        </g>
        <g>
            <g>
                <g>
                    <path d="M316.334 430.815a1.342 1.342 0 0 0 0 2.682c.908 0 8.224.149 10.408.945.921.33 1.052 1.165 1.052 1.737v22.688l-4.527-3.621a1.351 1.351 0 0 0-.837-.292h-18.775a2.685 2.685 0 0 1-2.682-2.682v-1.341a1.342 1.342 0 0 0-2.682 0v1.34a5.37 5.37 0 0 0 5.364 5.365h18.303l6.338 5.072a1.354 1.354 0 0 0 1.421.16c.464-.225.76-.694.76-1.21v-25.48c0-1.463-.125-2.795-1.914-4.022-1.789-1.227-10.735-1.341-12.229-1.341Z"
                          fill="#008a1f" fill-rule="evenodd"/>
                    <path d="M316.334 430.815a1.342 1.342 0 0 0 0 2.682c.908 0 8.224.149 10.408.945.921.33 1.052 1.165 1.052 1.737v22.688l-4.527-3.621a1.351 1.351 0 0 0-.837-.292h-18.775a2.685 2.685 0 0 1-2.682-2.682v-1.341a1.342 1.342 0 0 0-2.682 0v1.34a5.37 5.37 0 0 0 5.364 5.365h18.303l6.338 5.072a1.354 1.354 0 0 0 1.421.16c.464-.225.76-.694.76-1.21v-25.48c0-1.463-.125-2.795-1.914-4.022-1.789-1.227-10.735-1.341-12.229-1.341Z"
                          stroke-linejoin="round" stroke-linecap="round" stroke-width=".7" stroke="#fff" fill="transparent"/>
                </g>
            </g>
        </g>
    </g>
</svg>
