<svg xmlns="http://www.w3.org/2000/svg" width="21.35" height="16.981" viewBox="0 0 21.35 16.981">
    <g id="chat_1_" transform="translate(5.15 0.15)" opacity="0.7">
        <g id="Group_15842" transform="translate(-1.768 3.271)">
            <g id="Group_15841" >
                <path id="Path_1166" d="M103.27,96H96.559a.559.559,0,0,0,0,1.118h6.711a.559.559,0,0,0,0-1.118Z" transform="translate(-96 -96)" fill="#fff" stroke="#fff" stroke-width="0.3"/>
            </g>
        </g>
        <g id="Group_15844" transform="translate(-1.751 5.452)">
            <g id="Group_15843" >
                <path id="Path_1167" d="M101.033,160H96.559a.559.559,0,0,0,0,1.118h4.474a.559.559,0,1,0,0-1.118Z" transform="translate(-96 -160)" fill="#fff" stroke="#fff" stroke-width="0.3"/>
            </g>
        </g>
        <g id="Group_15846" transform="translate(-5)">
            <g id="Group_15845">
                <path id="Path_1168" d="M12.3,0H2.237A2.239,2.239,0,0,0,0,2.237V13.422a.559.559,0,0,0,.322.507.567.567,0,0,0,.237.053.559.559,0,0,0,.358-.13l3.2-2.667H12.3a2.239,2.239,0,0,0,2.237-2.237V2.237A2.239,2.239,0,0,0,12.3,0Zm1.119,8.948A1.12,1.12,0,0,1,12.3,10.067H3.915a.559.559,0,0,0-.358.13L1.119,12.229V2.237A1.12,1.12,0,0,1,2.237,1.119H12.3a1.12,1.12,0,0,1,1.119,1.119Z" fill="#fff" stroke="#fff" stroke-width="0.3"/>
            </g>
        </g>
        <g id="Group_15848" transform="translate(2.628 3.259)">
            <g id="Group_15847">
                <path id="Path_1169" d="M135.524,128a.559.559,0,0,0,0,1.118,22.253,22.253,0,0,1,4.34.394.694.694,0,0,1,.439.724V139.7l-1.888-1.51a.564.564,0,0,0-.349-.122h-7.83a1.12,1.12,0,0,1-1.118-1.118v-.559a.559.559,0,1,0-1.118,0v.559a2.239,2.239,0,0,0,2.237,2.237h7.633l2.643,2.115a.56.56,0,0,0,.909-.437V130.237a1.728,1.728,0,0,0-.8-1.678C139.878,128.048,136.148,128,135.524,128Z" transform="translate(-128 -128)" fill="#fff" stroke="#fff" stroke-width="0.3"/>
            </g>
        </g>
    </g>
</svg>
