<svg xmlns="http://www.w3.org/2000/svg" width="45" height="45" viewBox="0 0 45 45">
  <g id="Group_16144" transform="translate(-523 -421)">
    <circle id="albert-dera-ILip77SbmOE-unsplash" cx="22.5" cy="22.5" r="22.5" transform="translate(523 421)" fill="#f9f9f9"/>
    <path id="Path_1263" d="M18.319,4.224A10.024,10.024,0,0,0,4.224,18.32Zm-2.235.208.507-.507a.358.358,0,1,1,.507.507l-.507.506a.358.358,0,0,1-.507-.507Zm-1.52,1.52.507-.507a.358.358,0,1,1,.507.507l-.507.507a.358.358,0,1,1-.507-.507Zm-1.52,1.52.507-.507a.358.358,0,0,1,.507.507l-.507.507a.358.358,0,1,1-.507-.507Zm-1.52,1.52.507-.507a.358.358,0,1,1,.507.507l-.507.507a.358.358,0,1,1-.507-.507Zm-1.52,1.52.507-.507a.358.358,0,0,1,.507.507l-.507.507a.358.358,0,1,1-.507-.507Zm-1.52,1.52.507-.507a.358.358,0,0,1,.507.507l-.507.507a.358.358,0,1,1-.507-.507Zm-1.52,1.52.507-.507a.358.358,0,1,1,.507.507l-.507.507a.358.358,0,1,1-.507-.507Zm-1.52,1.52.507-.507a.358.358,0,1,1,.507.507l-.506.507a.358.358,0,1,1-.507-.507ZM3.926,17.1a.358.358,0,0,1,0-.507l.507-.507a.358.358,0,1,1,.506.507l-.506.507A.358.358,0,0,1,3.926,17.1Z" transform="translate(533.998 431.998)" fill="#008a1f"/>
    <path id="Path_1262" d="M10.024,24.132,24.132,10.024q-.243-.262-.5-.5L9.52,23.628Q9.763,23.89,10.024,24.132Z" transform="translate(529.173 427.174)" fill="#008a1f"/>
    <path id="Path_1261" d="M12.448,26.543a10.024,10.024,0,0,0,14.1-14.1Zm2.235-.208-.507.507a.358.358,0,1,1-.507-.507l.507-.506a.358.358,0,0,1,.507.507Zm1.52-1.52-.507.507a.358.358,0,1,1-.507-.507l.507-.507a.358.358,0,1,1,.507.507Zm1.52-1.52-.507.507a.358.358,0,1,1-.507-.507l.507-.507a.358.358,0,0,1,.507.507Zm1.52-1.52-.507.507a.358.358,0,1,1-.507-.507l.507-.507a.358.358,0,1,1,.507.507Zm1.52-1.52-.507.507a.358.358,0,1,1-.507-.507l.507-.507a.358.358,0,1,1,.507.507Zm1.52-1.52-.507.507a.358.358,0,0,1-.507-.507l.507-.507a.358.358,0,1,1,.507.507Zm1.52-1.52-.507.507a.358.358,0,1,1-.507-.507l.507-.507a.358.358,0,1,1,.507.507Zm1.52-1.52-.507.507a.358.358,0,1,1-.507-.507l.506-.507a.358.358,0,1,1,.507.507Zm1.52-2.027a.358.358,0,0,1,0,.507l-.507.507a.358.358,0,1,1-.507-.507l.507-.507a.358.358,0,0,1,.506,0Z" transform="translate(527.233 425.233)" fill="#008a1f"/>
  </g>
</svg>
