<svg xmlns="http://www.w3.org/2000/svg" width="21.001" height="21.001" viewBox="0 0 21.001 21.001">
  <g id="Group_16106" transform="translate(-2 -2)">
    <path id="Path_1256" d="M12,3.5a8.5,8.5,0,0,0-.705,16.971l-.234.936A2.117,2.117,0,0,0,11,21.95a10,10,0,1,1,10.975-10.7A3.293,3.293,0,0,0,20.715,11h0c-.09,0-.18,0-.27.011A8.5,8.5,0,0,0,12,3.5Z" fill="#fff"/>
    <path id="Path_1257" d="M20.715,12h0a2.271,2.271,0,0,0-1.615.67l-5.9,5.9a2.684,2.684,0,0,0-.707,1.247l-.458,1.831a1.087,1.087,0,0,0,1.319,1.318l1.83-.457a2.684,2.684,0,0,0,1.248-.707l5.9-5.9A2.285,2.285,0,0,0,20.715,12Z" fill="#fff"/>
  </g>
</svg>
