<svg xmlns="http://www.w3.org/2000/svg" width="414" height="692" viewBox="-0.001 94 414 692"><g data-name="Group 75"><path d="M0 0h414v692H0V0z" fill="url(&quot;#a&quot;)" transform="translate(0 94)" data-name="Rectangle 137"/><path d="M0 0h692v30H0V0z" fill="url(&quot;#b&quot;)" transform="rotate(90 114.5 208.5)" data-name="Rectangle 104"/><path d="M0 0h692v30H0V0z" fill="url(&quot;#c&quot;)" transform="rotate(90 14 108)" data-name="Rectangle 106"/><path d="M0 0h692v30H0V0z" fill="url(&quot;#d&quot;)" transform="rotate(90 81 175)" data-name="Rectangle 107"/><path d="M0 0h692v30H0V0z" fill="url(&quot;#e&quot;)" transform="rotate(90 149 243)" data-name="Rectangle 108"/><path d="M0 0h692v30H0V0z" fill="url(&quot;#f&quot;)" transform="rotate(90 -20.5 73.5)" data-name="Rectangle 109"/><path d="M0 0h692v30H0V0z" fill="url(&quot;#g&quot;)" transform="rotate(90 47.5 141.5)" data-name="Rectangle 110"/></g><defs><linearGradient x1="1" y1=".5" x2="0" y2=".5" id="b"><stop stop-color="#229a5d" offset="0"/><stop stop-color="#26a967" offset=".494"/><stop stop-color="#229b5e" offset="1"/></linearGradient><linearGradient x1="1" y1=".5" x2="0" y2=".5" id="c"><stop stop-color="#229a5d" offset="0"/><stop stop-color="#26a967" offset=".494"/><stop stop-color="#229b5e" offset="1"/></linearGradient><linearGradient x1="1" y1=".5" x2="0" y2=".5" id="d"><stop stop-color="#229a5d" offset="0"/><stop stop-color="#26a967" offset=".494"/><stop stop-color="#229b5e" offset="1"/></linearGradient><linearGradient x1="1" y1=".5" x2="0" y2=".5" id="e"><stop stop-color="#229a5d" offset="0"/><stop stop-color="#26a967" offset=".494"/><stop stop-color="#229b5e" offset="1"/></linearGradient><linearGradient x1="1" y1=".5" x2="0" y2=".5" id="f"><stop stop-color="#229a5d" offset="0"/><stop stop-color="#26a967" offset=".494"/><stop stop-color="#229b5e" offset="1"/></linearGradient><linearGradient x1="1" y1=".5" x2="0" y2=".5" id="g"><stop stop-color="#229a5d" offset="0"/><stop stop-color="#26a967" offset=".494"/><stop stop-color="#229b5e" offset="1"/></linearGradient><radialGradient fx=".5" fy=".5" cx=".5" cy=".5" fr="0" r=".5" id="a"><stop stop-color="#21a563" offset="0"/><stop stop-color="#21975c" offset="1"/></radialGradient></defs></svg>
