<svg xmlns="http://www.w3.org/2000/svg" width="45" height="45" viewBox="0 0 45 45">
  <g id="Group_16036" transform="translate(-30 -129)">
    <g id="Group_15948" transform="translate(0 -46)">
      <circle id="albert-dera-ILip77SbmOE-unsplash" cx="22.5" cy="22.5" r="22.5" transform="translate(30 175)" fill="#f9f9f9"/>
    </g>
    <path id="cricket_1_" d="M32.1,15.605l-2.379-.445c.262-.111.5-.224.705-.333a3.1,3.1,0,0,0,1.722-2.714V6.993a.654.654,0,0,0-.654-.654H31.18v-.7A5.938,5.938,0,0,0,24.991,0,5.938,5.938,0,0,0,18.8,5.635v.7h-.319a.654.654,0,0,0-.654.654v5.121a3.1,3.1,0,0,0,1.722,2.714c.208.109.443.221.705.333l-2.379.445a4.112,4.112,0,0,0-3.355,4.04v1.9a.654.654,0,0,0,.654.654h19.63a.654.654,0,0,0,.654-.654v-1.9a4.112,4.112,0,0,0-3.355-4.04ZM15.83,19.646a2.8,2.8,0,0,1,1.824-2.626A9.678,9.678,0,0,1,18.762,20.9H15.83ZM20.11,5.635a4.635,4.635,0,0,1,4.881-4.327,4.635,4.635,0,0,1,4.881,4.327v.7H20.11Zm8.78,6.318v-1.5h1.955v1.5Zm1.02,8.943H25.645V19.145l2.163-3.013,3.2.6a11,11,0,0,0-1.1,4.166Zm-4.918-4.829c.456,0,.888-.022,1.3-.061l-1.3,1.807-1.3-1.807C24.1,16.045,24.535,16.067,24.991,16.067Zm.654-1.324V13.26h1.938V14.48a11.377,11.377,0,0,1-1.938.263Zm0-2.79v-1.5h1.938v1.5Zm-4.1-2.807v-1.5h6.9v1.5Zm-1.308-1.5v1.5h-1.1v-1.5Zm9.512,1.5v-1.5h1.1v1.5Zm-10.61,1.307h1.955v1.5H19.137Zm3.263,0h1.938v1.5H22.4Zm1.938,2.807v1.483A11.375,11.375,0,0,1,22.4,14.48V13.26Zm-2.163,2.872,2.163,3.013V20.9H20.073a11,11,0,0,0-1.1-4.166ZM34.152,20.9H31.22a9.677,9.677,0,0,1,1.108-3.877,2.8,2.8,0,0,1,1.824,2.626ZM29.824,13.67a8.542,8.542,0,0,1-.934.418V13.26h1.477A2.056,2.056,0,0,1,29.824,13.67Zm-10.209-.41h1.477v.827a8.534,8.534,0,0,1-.934-.418A2.055,2.055,0,0,1,19.615,13.26Z" transform="translate(27.509 140.398)" fill="#008a1f"/>
  </g>
</svg>
