<svg xmlns="http://www.w3.org/2000/svg" width="51.415" height="40" viewBox="82.792 423 51.415 40">
    <g>
        <g>
            <path d="M127.5 434.253a6.875 6.875 0 0 0 1.542-4.344c0-3.81-3.1-6.909-6.91-6.909-3.809 0-6.908 3.1-6.908 6.91 0 1.645.579 3.157 1.543 4.345a9.673 9.673 0 0 0-2.569 1.264 6.906 6.906 0 0 0-5.698-3.007 6.906 6.906 0 0 0-5.698 3.007 9.67 9.67 0 0 0-2.569-1.264 6.876 6.876 0 0 0 1.544-4.346c0-3.81-3.1-6.909-6.91-6.909s-6.909 3.1-6.909 6.91c0 1.644.578 3.155 1.541 4.343-3.885 1.24-6.707 4.883-6.707 9.173v8.553c0 .834.676 1.51 1.51 1.51h12.124v8.002c0 .833.675 1.509 1.509 1.509h21.13a1.51 1.51 0 0 0 1.51-1.51v-8.002h12.123a1.51 1.51 0 0 0 1.51-1.509v-8.553c0-4.29-2.822-7.934-6.707-9.173Zm-5.367-8.234a3.895 3.895 0 0 1 3.89 3.89 3.895 3.895 0 0 1-3.886 3.89h-.008a3.895 3.895 0 0 1-3.886-3.89 3.895 3.895 0 0 1 3.89-3.89ZM108.5 435.53c2.16 0 3.92 1.771 3.89 3.947a3.894 3.894 0 0 1-3.89 3.834 3.897 3.897 0 0 1-3.89-3.89c0-2.118 1.719-3.891 3.89-3.891Zm-13.633-9.512a3.895 3.895 0 0 1 3.89 3.89 3.895 3.895 0 0 1-3.886 3.89h-.008a3.895 3.895 0 0 1-3.886-3.89 3.895 3.895 0 0 1 3.89-3.89Zm-9.056 17.407a6.615 6.615 0 0 1 6.608-6.608h4.897c1.6 0 3.146.587 4.343 1.63a6.93 6.93 0 0 0 1.469 5.317 9.653 9.653 0 0 0-6.382 6.705H92.25v-5.649a1.51 1.51 0 0 0-3.019 0v5.649h-3.42v-7.044Zm31.745 16.555h-3.019v-4.46a1.51 1.51 0 0 0-3.018 0v4.46h-6.038v-4.46a1.51 1.51 0 0 0-3.018 0v4.46h-3.019v-7.043c0-3.63 2.952-6.608 6.608-6.608h4.897c3.65 0 6.607 2.974 6.607 6.608v7.043Zm13.633-9.511h-3.42v-5.649a1.51 1.51 0 0 0-3.019 0v5.649h-4.496a9.653 9.653 0 0 0-6.382-6.705 6.93 6.93 0 0 0 1.47-5.317 6.625 6.625 0 0 1 4.342-1.63h4.897a6.615 6.615 0 0 1 6.608 6.608v7.044Z"
                  fill="#008a1f"/>
            <path d="M127.5 434.253a6.875 6.875 0 0 0 1.542-4.344c0-3.81-3.1-6.909-6.91-6.909-3.809 0-6.908 3.1-6.908 6.91 0 1.645.579 3.157 1.543 4.345a9.673 9.673 0 0 0-2.569 1.264 6.906 6.906 0 0 0-5.698-3.007 6.906 6.906 0 0 0-5.698 3.007 9.67 9.67 0 0 0-2.569-1.264 6.876 6.876 0 0 0 1.544-4.346c0-3.81-3.1-6.909-6.91-6.909s-6.909 3.1-6.909 6.91c0 1.644.578 3.155 1.541 4.343-3.885 1.24-6.707 4.883-6.707 9.173v8.553c0 .834.676 1.51 1.51 1.51h12.124v8.002c0 .833.675 1.509 1.509 1.509h21.13a1.51 1.51 0 0 0 1.51-1.51v-8.002h12.123a1.51 1.51 0 0 0 1.51-1.509v-8.553c0-4.29-2.822-7.934-6.707-9.173Zm-5.367-8.234a3.895 3.895 0 0 1 3.89 3.89 3.895 3.895 0 0 1-3.886 3.89h-.008a3.895 3.895 0 0 1-3.886-3.89 3.895 3.895 0 0 1 3.89-3.89ZM108.5 435.53c2.16 0 3.92 1.771 3.89 3.947a3.894 3.894 0 0 1-3.89 3.834 3.897 3.897 0 0 1-3.89-3.89c0-2.118 1.719-3.891 3.89-3.891Zm-13.633-9.512a3.895 3.895 0 0 1 3.89 3.89 3.895 3.895 0 0 1-3.886 3.89h-.008a3.895 3.895 0 0 1-3.886-3.89 3.895 3.895 0 0 1 3.89-3.89Zm-9.056 17.407a6.615 6.615 0 0 1 6.608-6.608h4.897c1.6 0 3.146.587 4.343 1.63a6.93 6.93 0 0 0 1.469 5.317 9.653 9.653 0 0 0-6.382 6.705H92.25v-5.649a1.51 1.51 0 0 0-3.019 0v5.649h-3.42v-7.044Zm31.745 16.555h-3.019v-4.46a1.51 1.51 0 0 0-3.018 0v4.46h-6.038v-4.46a1.51 1.51 0 0 0-3.018 0v4.46h-3.019v-7.043c0-3.63 2.952-6.608 6.608-6.608h4.897c3.65 0 6.607 2.974 6.607 6.608v7.043Zm13.633-9.511h-3.42v-5.649a1.51 1.51 0 0 0-3.019 0v5.649h-4.496a9.653 9.653 0 0 0-6.382-6.705 6.93 6.93 0 0 0 1.47-5.317 6.625 6.625 0 0 1 4.342-1.63h4.897a6.615 6.615 0 0 1 6.608 6.608v7.044Z"
                  stroke-linejoin="round" stroke-linecap="round" stroke-width="1.2" stroke="#fff" fill="transparent"/>
        </g>
    </g>
</svg>
