<svg xmlns="http://www.w3.org/2000/svg" width="45" height="45" viewBox="0 0 45 45">
  <g id="Group_16036" transform="translate(-30 -129)">
    <g id="Group_15948" transform="translate(0 -46)">
      <circle id="albert-dera-ILip77SbmOE-unsplash" cx="22.5" cy="22.5" r="22.5" transform="translate(30 175)" fill="#f9f9f9"/>
    </g>
    <g id="gift" transform="translate(42.692 141.692)">
      <g id="Group_16044" transform="translate(0 0)">
        <path id="Path_1222" d="M17.891,4.6H15.553a2.872,2.872,0,0,0-2.3-4.6,2.579,2.579,0,0,0-2.215,1.076A11.157,11.157,0,0,0,9.808,3.631,11.156,11.156,0,0,0,8.574,1.076,2.579,2.579,0,0,0,6.36,0a2.872,2.872,0,0,0-2.3,4.6H1.724A1.726,1.726,0,0,0,0,6.321V7.471A1.727,1.727,0,0,0,1.149,9.1v8.8a1.726,1.726,0,0,0,1.724,1.724H16.742a1.726,1.726,0,0,0,1.724-1.724V9.1a1.727,1.727,0,0,0,1.149-1.625V6.321A1.726,1.726,0,0,0,17.891,4.6Zm-7.029-.508c.88-2.233,1.215-2.94,2.393-2.94a1.724,1.724,0,0,1,0,3.448H10.661C10.732,4.421,10.8,4.25,10.862,4.089Zm-4.5-2.94c1.178,0,1.513.707,2.393,2.94.063.161.131.331.2.508H6.36a1.724,1.724,0,0,1,0-3.448ZM7.509,18.466H2.873a.575.575,0,0,1-.575-.575v-8.7h5.21Zm0-10.421H1.724a.575.575,0,0,1-.575-.575V6.321a.575.575,0,0,1,.575-.575H7.509Zm3.448,10.421h-2.3V5.747h2.3Zm6.36-.575a.575.575,0,0,1-.575.575H12.106V9.195h5.21ZM18.466,7.471a.575.575,0,0,1-.575.575H12.106v-2.3h5.785a.575.575,0,0,1,.575.575Z" transform="translate(0 0)" fill="#008a1f" stroke="#008a1f" stroke-width="0.3"/>
      </g>
    </g>
  </g>
</svg>
