<svg xmlns="http://www.w3.org/2000/svg" width="17" height="17" viewBox="15 359 17 17"><g><g><path d="M23.5 359c-4.687 0-8.5 3.813-8.5 8.5 0 4.687 3.813 8.5 8.5 8.5 4.687 0 8.5-3.813 8.5-8.5 0-4.687-3.813-8.5-8.5-8.5Zm0 15.455a6.962 6.962 0 0 1-6.955-6.955 6.962 6.962 0 0 1 6.955-6.955 6.962 6.962 0 0 1 6.955 6.955 6.962 6.962 0 0 1-6.955 6.955Z" fill="#fff" fill-rule="evenodd"/><path d="M23.5 359c-4.687 0-8.5 3.813-8.5 8.5 0 4.687 3.813 8.5 8.5 8.5 4.687 0 8.5-3.813 8.5-8.5 0-4.687-3.813-8.5-8.5-8.5Zm0 15.455a6.962 6.962 0 0 1-6.955-6.955 6.962 6.962 0 0 1 6.955-6.955 6.962 6.962 0 0 1 6.955 6.955 6.962 6.962 0 0 1-6.955 6.955Z" stroke-linejoin="round" stroke-linecap="round" stroke-width=".6" stroke="#000" fill="transparent"/></g><g><path d="M23.5 362.615a1.012 1.012 0 1 0 1.011 1.012c0-.558-.453-1.012-1.011-1.012Z" fill="#fff" fill-rule="evenodd"/><path d="M23.5 362.615a1.012 1.012 0 1 0 1.011 1.012c0-.558-.453-1.012-1.011-1.012Z" stroke-linejoin="round" stroke-linecap="round" stroke-width=".6" stroke="#000" fill="transparent"/></g><g><path d="M23.5 366.287a.759.759 0 0 0-.759.759v4.552a.759.759 0 0 0 1.518 0v-4.552a.759.759 0 0 0-.759-.76Z" fill="#fff" fill-rule="evenodd"/><path d="M23.5 366.287a.759.759 0 0 0-.759.759v4.552a.759.759 0 0 0 1.518 0v-4.552a.759.759 0 0 0-.759-.76Z" stroke-linejoin="round" stroke-linecap="round" stroke-width=".6" stroke="#000" fill="transparent"/></g></g></svg>
